PathFileType	4	(X/Y/Z)	/Users/niels/Desktop/University/Third Semester/Perception and Action/Exam/Gymnastics Motion Tracking/Code for Gym Tracking/Analyzed Data/Webcam_Backflip/id1_2_baseline_Sports2D/id1_2_baseline_Sports2D_px_person00.trc
DataRate	CameraRate	NumFrames	NumMarkers	Units	OrigDataRate	OrigDataStartFrame	OrigNumFrames
29.874476987447697	29.874476987447697	11	22	m	29.874476987447697	149	239
Frame#	Time	Hip			RHip			RKnee			RAnkle			RBigToe			RSmallToe			RHeel			LHip			LKnee			LAnkle			LBigToe			LSmallToe			LHeel			Neck			Head			Nose			RShoulder			RElbow			RWrist			LShoulder			LElbow			LWrist		
		X1	Y1	Z1	X2	Y2	Z2	X3	Y3	Z3	X4	Y4	Z4	X5	Y5	Z5	X6	Y6	Z6	X7	Y7	Z7	X8	Y8	Z8	X9	Y9	Z9	X10	Y10	Z10	X11	Y11	Z11	X12	Y12	Z12	X13	Y13	Z13	X14	Y14	Z14	X15	Y15	Z15	X16	Y16	Z16	X17	Y17	Z17	X18	Y18	Z18	X19	Y19	Z19	X20	Y20	Z20	X21	Y21	Z21	X22	Y22	Z22
149	4.987535014005602	0.8226979296638328	-0.609529322032677	0.0	0.8297867211600927	-0.606259729275362	0.0	0.8828432199672693	-0.7072324804521667	0.0	0.8851051084130911	-0.8236856603120903	0.0	0.9321745299171148	-0.828675483186062	0.0	0.9274050578380615	-0.8348483246156657	0.0	0.8753869408615687	-0.8374585801063908	0.0	0.812886459581198	-0.6066658675666745	0.0	0.8074192452840534	-0.7107545768858357	0.0	0.7127078593917483	-0.777143197539776	0.0	0.7249723735638052	-0.8154943356068838	0.0	0.7202803717757905	-0.8083449324341337	0.0	0.6945782833362504	-0.7809066175639471	0.0	0.8629354943331241	-0.4499538894853015	0.0	0.9163779048629292	-0.40512642632746493	0.0	0.9079174966394672	-0.44758365998772925	0.0	0.8416988805160864	-0.4659521553945354	0.0	0.8071606377944625	-0.540662211022977	0.0	0.8310852725986232	-0.6125953265971295	0.0	0.8495495179583822	-0.466704455047402	0.0	0.8344061129448879	-0.54699497339877	0.0	0.8549495428609636	-0.605577023683323	0.0
150	5.0210084033613445	0.8310438978615953	-0.6069338149397785	0.0	0.8359565476374257	-0.6033993888039881	0.0	0.8845034697522031	-0.7066026759465005	0.0	0.8855017829336845	-0.8237208890712665	0.0	0.9334447947971414	-0.8284043211223325	0.0	0.9283352685322172	-0.8340954444783941	0.0	0.8755441006940862	-0.8372862180661296	0.0	0.8233234771485141	-0.6035844306173911	0.0	0.8226654129868199	-0.7083525827111322	0.0	0.7258830042344343	-0.7682161535175894	0.0	0.7338576704913847	-0.8110844429726999	0.0	0.7301155601268456	-0.8027538918188286	0.0	0.7072519461075262	-0.7690919262154671	0.0	0.8695451144342223	-0.4468397469257803	0.0	0.9220389028445403	-0.4018439473323206	0.0	0.9142563908656134	-0.44414006420583774	0.0	0.848205412533926	-0.4632223764869941	0.0	0.8141161724920314	-0.5383312191273253	0.0	0.840672845784841	-0.6091958078184074	0.0	0.8564677962080882	-0.4641054919330189	0.0	0.8402611763517759	-0.5442700615718599	0.0	0.8609886743813284	-0.6032737496933859	0.0
151	5.054481792717087	0.8386075274824167	-0.6044844611955791	0.0	0.841491060895757	-0.6008396847875757	0.0	0.8855137721872818	-0.7056728208586438	0.0	0.8856813059821027	-0.8236217488398346	0.0	0.9346216326217792	-0.828334675290647	0.0	0.9289484752793367	-0.8336917916229271	0.0	0.8757131898686012	-0.8369716488374668	0.0	0.8327530638109341	-0.6006669375208763	0.0	0.8371573663225715	-0.7058015602586921	0.0	0.7413225085565825	-0.761634404170114	0.0	0.747252971918232	-0.8075824801189325	0.0	0.7444533121293421	-0.7984479094427525	0.0	0.722614672090672	-0.7606752733711735	0.0	0.8757775476318745	-0.44410294662073674	0.0	0.9274030405083109	-0.3989629555525256	0.0	0.9201717890800793	-0.4410425281460219	0.0	0.854370634361397	-0.4608818915376452	0.0	0.8209367534989662	-0.5363202853305361	0.0	0.8499147572436296	-0.6060309671913112	0.0	0.8626219276533548	-0.4614151814056671	0.0	0.8449865653791008	-0.5415460009804426	0.0	0.8655117753833141	-0.6012314964279144	0.0
152	5.087955182072829	0.8451872302071892	-0.6024201595423527	0.0	0.8464559683789191	-0.5987477945689244	0.0	0.8860432403706551	-0.7046680454224927	0.0	0.8857810209345344	-0.8235569290315491	0.0	0.9357283291637403	-0.8289346407086893	0.0	0.9291476491794924	-0.8342490763159046	0.0	0.8759971114560857	-0.8365617355485869	0.0	0.8409239630650551	-0.5981884416613558	0.0	0.8511690891357062	-0.7030999881072044	0.0	0.7585839506563137	-0.7581263255330115	0.0	0.7650223658469204	-0.8053367284412144	0.0	0.762790538145148	-0.795879121693225	0.0	0.7401212576799355	-0.7567787264474167	0.0	0.881554275576299	-0.44189836095709184	0.0	0.9323362228601394	-0.3964940443235243	0.0	0.9256936103948634	-0.4383115776327555	0.0	0.8601259423449592	-0.4590714589444045	0.0	0.8275694607083469	-0.5347714649381821	0.0	0.8584690878883618	-0.6033991609102879	0.0	0.8680958894153621	-0.4589490987851162	0.0	0.8489997534997042	-0.5391235458208828	0.0	0.8691152326634769	-0.5995239355944612	0.0
153	5.121428571428571	0.8507477572725596	-0.6008118628724313	0.0	0.850787230453384	-0.5971806930148377	0.0	0.8862827426971428	-0.703773471232771	0.0	0.8859569072861887	-0.8235280821097508	0.0	0.936834460749859	-0.8302958979686251	0.0	0.9290072142742473	-0.835810348227344	0.0	0.8764995289266013	-0.8360936493321844	0.0	0.8483191555679245	-0.5962958790675719	0.0	0.8653936907026534	-0.700188927866755	0.0	0.7770468501030606	-0.7578414785779478	0.0	0.7864478685031618	-0.8046074851796349	0.0	0.7840930704982345	-0.7953334533871684	0.0	0.7589404109724612	-0.7574824614982291	0.0	0.8868185581841448	-0.4402997569668704	0.0	0.9367661248439937	-0.39435906496807893	0.0	0.9308663115589664	-0.435963470669106	0.0	0.8654510803017817	-0.4577951124668687	0.0	0.8339062539339522	-0.5337244927636086	0.0	0.8661906070394725	-0.6014583168028396	0.0	0.8730981952432235	-0.456981152141517	0.0	0.85272481169899	-0.5371970178559118	0.0	0.8724686416103733	-0.5981960044976489	0.0
154	5.154901960784313	0.8553768232688941	-0.5996077816158739	0.0	0.854438377567408	-0.5961189754294093	0.0	0.8864184873772689	-0.7031545166982481	0.0	0.8862592999319417	-0.8234201442286598	0.0	0.9379843092991454	-0.8321290279621674	0.0	0.9286774823009903	-0.837915174000474	0.0	0.8772619214128583	-0.8355927495524966	0.0	0.8554736868095405	-0.5950133958701447	0.0	0.8800053303727904	-0.6971163000082019	0.0	0.795972699632475	-0.7604678562534269	0.0	0.8103685736384622	-0.8054164441022864	0.0	0.807048195104125	-0.7967732221940884	0.0	0.7782205008031754	-0.7620680878456333	0.0	0.8915292632502057	-0.4392900815165151	0.0	0.9406861752762129	-0.3924500541513272	0.0	0.935667872370856	-0.43401813708356596	0.0	0.8703301208351168	-0.4569684734943357	0.0	0.8398058870048238	-0.5331430051466156	0.0	0.8730789688201296	-0.6002006664155745	0.0	0.8778557109054221	-0.45566923185428587	0.0	0.8565384814266365	-0.5358247123043824	0.0	0.8761084059778248	-0.5972308167642426	0.0
155	5.188375350140056	0.8592240909155143	-0.5987753485553304	0.0	0.857535148152768	-0.5955183718008769	0.0	0.8866571595158378	-0.702943478883535	0.0	0.8866181546667768	-0.8231112895066898	0.0	0.9391010886999897	-0.833993715196583	0.0	0.9282757480872224	-0.8399931216547315	0.0	0.878205645262164	-0.8351107887987058	0.0	0.8623214447610409	-0.594295903996372	0.0	0.8940394782426538	-0.6942099124017456	0.0	0.8145864069129944	-0.7654209647048511	0.0	0.83533356061949	-0.8074835711503844	0.0	0.8303007205190274	-0.7997489227431023	0.0	0.7972230361010424	-0.7694872708849021	0.0	0.8956540648031436	-0.4387649393118818	0.0	0.9441480574598803	-0.39068264758716176	0.0	0.9399924028423389	-0.43244934594844586	0.0	0.8747201837187258	-0.45647971548301297	0.0	0.8451373456135102	-0.53294198836206	0.0	0.8791524586148897	-0.5994983046430726	0.0	0.8824485507744514	-0.4550005007324019	0.0	0.8606163323063083	-0.5349298477175504	0.0	0.8801806771952748	-0.5965219187416555	0.0
156	5.221848739495798	0.8624998998715846	-0.5983644795036601	0.0	0.8603180819264281	-0.595358922325328	0.0	0.8872033889791422	-0.7031343603001408	0.0	0.8869433082411866	-0.8225212496284452	0.0	0.9400024809654255	-0.8355124833598688	0.0	0.927843219902915	-0.8416227344252526	0.0	0.8791300370535294	-0.8347001270995886	0.0	0.868431978382026	-0.5941035393517718	0.0	0.9058681999321149	-0.6920001768685249	0.0	0.832145919466614	-0.7719891460117047	0.0	0.8597689849098604	-0.810430850553006	0.0	0.852664474146441	-0.8036257966090535	0.0	0.815244886005208	-0.7786623929212619	0.0	0.8991672787586753	-0.43854924185878924	0.0	0.9472240788471837	-0.3890084601447102	0.0	0.9437336769914471	-0.4311894746655318	0.0	0.8785503145107236	-0.45621752706799534	0.0	0.84980525665097	-0.5330074703765859	0.0	0.8843692679048167	-0.5991854657162211	0.0	0.8867640895909373	-0.4548061564886458	0.0	0.8648585960468063	-0.5343602873416536	0.0	0.8843943981325275	-0.5959504328680097	0.0
157	5.255322128851541	0.8654662826398863	-0.5984095072943615	0.0	0.8630064113452265	-0.595625081945408	0.0	0.8881552556863173	-0.7035544242047773	0.0	0.8871654102310829	-0.8216130780928063	0.0	0.9405124575057295	-0.8364591229872241	0.0	0.9273634501352508	-0.8425652850607201	0.0	0.8797818264648976	-0.8343156830154751	0.0	0.8735420414250857	-0.594403197940229	0.0	0.9142080006153638	-0.6909467245778147	0.0	0.8479872600414876	-0.7794555005202528	0.0	0.8821456325397496	-0.8140069882071239	0.0	0.8732465323444553	-0.8079213095604467	0.0	0.8315909343147508	-0.7886448157843664	0.0	0.9020679864872788	-0.43844393450144925	0.0	0.9499549769904403	-0.3873873970525724	0.0	0.9468747684992694	-0.43017928404008754	0.0	0.8817179898158235	-0.45609440476926466	0.0	0.8537378487843801	-0.5332049950590416	0.0	0.8886222264428865	-0.5991113523853023	0.0	0.8906479439026795	-0.45488483979020927	0.0	0.8690368462084124	-0.5339734005641802	0.0	0.8883042908461514	-0.5954577826641149	0.0
158	5.288795518207283	0.8683794019927407	-0.5988247096098845	0.0	0.865753180294482	-0.5962231365845581	0.0	0.8894463990432194	-0.7039774298913675	0.0	0.8872184960127271	-0.820420304170495	0.0	0.9405691162760904	-0.8367610675482784	0.0	0.9268516796023928	-0.8427274133734168	0.0	0.8799744880099176	-0.8338330881058266	0.0	0.877742465052009	-0.5950924780252662	0.0	0.9186217232166446	-0.6912557958851745	0.0	0.8615412363283561	-0.7872000876792393	0.0	0.901217769905864	-0.8181317805901298	0.0	0.8914621677980901	-0.8124714957723641	0.0	0.8456676790836406	-0.7986682418649127	0.0	0.9043939992545367	-0.43830351185022054	0.0	0.952330001265604	-0.38577739170611963	0.0	0.9494816626987932	-0.42936720870217093	0.0	0.8841189893081871	-0.45605756096245137	0.0	0.8568614820588647	-0.5334041419851969	0.0	0.8917983299913335	-0.5991638527180446	0.0	0.8940513818278898	-0.45511355265507625	0.0	0.8729453898475704	-0.5336711143532482	0.0	0.8916291205533668	-0.5950529737371186	0.0
159	5.322268907563025	0.8714124298405791	-0.5994518379376315	0.0	0.8686637352058282	-0.5969886609662027	0.0	0.8908964599105079	-0.7042733459380088	0.0	0.8870766647702332	-0.819107523766379	0.0	0.9402560670036134	-0.8365096260622609	0.0	0.9264167700327764	-0.8422038353485504	0.0	0.8796969344544543	-0.8332328593209145	0.0	0.8813391765763342	-0.5960012593368137	0.0	0.91941031512345	-0.6928565235385474	0.0	0.8723703540222547	-0.7947089350570041	0.0	0.9162800438901415	-0.822699417523596	0.0	0.9068975879465216	-0.8172790163258313	0.0	0.8570647306902007	-0.8080680226365196	0.0	0.9062114502918254	-0.4380920609496374	0.0	0.9543020870281503	-0.3841714552533063	0.0	0.9516373627901125	-0.4286921260930514	0.0	0.8857189268206704	-0.4560864472229974	0.0	0.8591202463368898	-0.5335394016051196	0.0	0.8938572452976327	-0.5992888400930548	0.0	0.8970286402131007	-0.4554536254614844	0.0	0.8764246272258563	-0.533406502207964	0.0	0.8943280362616176	-0.5948284032853407	0.0
